0
SECTION
2
HEADER
9
$INSUNITS
70
4
9
$ACADVER
1
AC1014
9
$HANDSEED
5
FFFF
0
ENDSEC
0
SECTION
2
TABLES
0
TABLE
2
VPORT
5
8
100
AcDbSymbolTable
0
ENDTAB
0
TABLE
2
LTYPE
5
5
100
AcDbSymbolTable
0
LTYPE
5
14
100
AcDbSymbolTableRecord
100
AcDbLinetypeTableRecord
2
BYBLOCK
70
0
0
LTYPE
5
15
100
AcDbSymbolTableRecord
100
AcDbLinetypeTableRecord
2
BYLAYER
70
0
0
ENDTAB
0
TABLE
2
LAYER
5
2
100
AcDbSymbolTable
70
2
0
LAYER
5
50
100
AcDbSymbolTableRecord
100
AcDbLayerTableRecord
2
0
70
0
6
CONTINUOUS
0
ENDTAB
0
TABLE
2
STYLE
5
3
100
AcDbSymbolTable
70
1
0
STYLE
5
11
100
AcDbSymbolTableRecord
100
AcDbTextStyleTableRecord
2
STANDARD
70
0
0
ENDTAB
0
TABLE
2
VIEW
5
6
100
AcDbSymbolTable
70
0
0
ENDTAB
0
TABLE
2
UCS
5
7
100
AcDbSymbolTable
70
0
0
ENDTAB
0
TABLE
2
APPID
5
9
100
AcDbSymbolTable
70
2
0
APPID
5
12
100
AcDbSymbolTableRecord
100
AcDbRegAppTableRecord
2
ACAD
70
0
0
ENDTAB
0
TABLE
2
DIMSTYLE
5
A
100
AcDbSymbolTable
70
1
0
ENDTAB
0
TABLE
2
BLOCK_RECORD
5
1
100
AcDbSymbolTable
70
1
0
BLOCK_RECORD
5
1F
100
AcDbSymbolTableRecord
100
AcDbBlockTableRecord
2
*MODEL_SPACE
0
BLOCK_RECORD
5
1B
100
AcDbSymbolTableRecord
100
AcDbBlockTableRecord
2
*PAPER_SPACE
0
ENDTAB
0
ENDSEC
0
SECTION
2
BLOCKS
0
BLOCK
5
20
100
AcDbEntity
100
AcDbBlockBegin
2
*MODEL_SPACE
0
ENDBLK
5
21
100
AcDbEntity
100
AcDbBlockEnd
0
BLOCK
5
1C
100
AcDbEntity
100
AcDbBlockBegin
2
*PAPER_SPACE
0
ENDBLK
5
1D
100
AcDbEntity
100
AcDbBlockEnd
0
ENDSEC
0
SECTION
2
ENTITIES
0
LWPOLYLINE
5
100
100
AcDbEntity
8
0
100
AcDbPolyline
90
30
70
1
43
0.0
10
-126.73205080756894
20
83.602540378443877
10
-75.000000000000085
20
83.602540378443877
10
-75.000000000000085
20
80.602540378443891
10
-25.000000000000099
20
80.602540378443905
10
-25.000000000000089
20
83.602540378443877
10
24.999999999999957
20
83.602540378443877
10
24.999999999999957
20
80.602540378443905
10
74.999999999999957
20
80.602540378443905
10
74.999999999999957
20
83.602540378443877
10
126.73205080756887
20
83.602540378443877
10
137.50000000000003
20
64.951905283833071
10
112.4999999999995
20
21.650635094610216
10
107.3038475772934
20
24.650635094611122
10
82.303847577293126
20
-18.650635094611925
10
87.499999999999503
20
-21.650635094611701
10
62.499999999999801
20
-64.951905283832531
10
57.303847577293475
20
-61.95190528383273
10
32.303847577293411
20
-105.25317547305465
10
37.500000000000064
20
-108.2531754730546
10
12.500000000000044
20
-151.55444566227658
10
-12.500000000000027
20
-151.55444566227672
10
-37.499999999999972
20
-108.25317547305481
10
-32.303847577293382
20
-105.25317547305477
10
-57.30384757729346
20
-61.951905283832915
10
-62.500000000000647
20
-64.951905283833256
10
-87.49999999999946
20
-21.650635094610546
10
-82.30384757729226
20
-18.650635094610166
10
-107.3038475772934
20
24.650635094611086
10
-112.5
20
21.650635094611062
10
-137.50000000000003
20
64.951905283833014
0
CIRCLE
5
101
100
AcDbEntity
8
0
100
AcDbCircle
10
-57.973720558371454
20
-50.791651245988831
30
0
40
1.749999999999998
210
0
220
0
230
1
0
CIRCLE
5
102
100
AcDbEntity
8
0
100
AcDbCircle
10
-72.973720558370999
20
-24.810889132455415
30
0
40
1.749999999999998
210
0
220
0
230
1
0
CIRCLE
5
103
100
AcDbEntity
8
0
100
AcDbCircle
10
28.999999999999922
20
1.4615242270663864
30
0
40
1.749999999999998
210
0
220
0
230
1
0
CIRCLE
5
104
100
AcDbEntity
8
0
100
AcDbCircle
10
-87.999999999999901
20
20.801270189221903
30
0
40
1.7500000000000071
210
0
220
0
230
1
0
CIRCLE
5
105
100
AcDbEntity
8
0
100
AcDbCircle
10
87.999999999999901
20
20.801270189221903
30
0
40
1.7500000000000071
210
0
220
0
230
1
0
CIRCLE
5
106
100
AcDbEntity
8
0
100
AcDbCircle
10
42.999999999999915
20
65.801270189221938
30
0
40
1.749999999999998
210
0
220
0
230
1
0
CIRCLE
5
107
100
AcDbEntity
8
0
100
AcDbCircle
10
-87.999999999999915
20
65.801270189221896
30
0
40
1.7500000000000071
210
0
220
0
230
1
0
CIRCLE
5
108
100
AcDbEntity
8
0
100
AcDbCircle
10
20.74999999999989
20
15.801270189221945
30
0
40
1.749999999999998
210
0
220
0
230
1
0
CIRCLE
5
109
100
AcDbEntity
8
0
100
AcDbCircle
10
-22.749999777906854
20
-34.826589310624506
30
0
40
1.749999999999998
210
0
220
0
230
1
0
CIRCLE
5
110
100
AcDbEntity
8
0
100
AcDbCircle
10
-22.749999777906872
20
-100.32658931062451
30
0
40
1.749999999999998
210
0
220
0
230
1
0
CIRCLE
5
111
100
AcDbEntity
8
0
100
AcDbCircle
10
57.540707882555878
20
-50.541651200821924
30
0
40
1.749999999999998
210
0
220
0
230
1
0
CIRCLE
5
112
100
AcDbEntity
8
0
100
AcDbCircle
10
72.540707882555878
20
-24.560889087288746
30
0
40
1.749999999999998
210
0
220
0
230
1
0
CIRCLE
5
113
100
AcDbEntity
8
0
100
AcDbCircle
10
-29.000000000000064
20
1.461524227066372
30
0
40
1.749999999999998
210
0
220
0
230
1
0
CIRCLE
5
114
100
AcDbEntity
8
0
100
AcDbCircle
10
-42.999999999999886
20
20.801270189221931
30
0
40
1.749999999999998
210
0
220
0
230
1
0
CIRCLE
5
115
100
AcDbEntity
8
0
100
AcDbCircle
10
42.999999999999893
20
20.801270189221931
30
0
40
1.749999999999998
210
0
220
0
230
1
0
CIRCLE
5
116
100
AcDbEntity
8
0
100
AcDbCircle
10
87.999999999999943
20
65.801270189221896
30
0
40
1.7500000000000071
210
0
220
0
230
1
0
CIRCLE
5
117
100
AcDbEntity
8
0
100
AcDbCircle
10
-42.999999999999915
20
65.801270189221938
30
0
40
1.749999999999998
210
0
220
0
230
1
0
CIRCLE
5
118
100
AcDbEntity
8
0
100
AcDbCircle
10
-20.750000000000021
20
15.801270189221945
30
0
40
1.7500000000000004
210
0
220
0
230
1
0
CIRCLE
5
119
100
AcDbEntity
8
0
100
AcDbCircle
10
22.750000222093128
20
-34.826589310624506
30
0
40
1.749999999999998
210
0
220
0
230
1
0
CIRCLE
5
120
100
AcDbEntity
8
0
100
AcDbCircle
10
22.750000222093124
20
-100.32658931062451
30
0
40
1.749999999999998
210
0
220
0
230
1
0
ENDSEC
0
SECTION
2
OBJECTS
0
DICTIONARY
5
C
100
AcDbDictionary
3
ACAD_GROUP
350
D
3
ACAD_MLINESTYLE
350
17
0
DICTIONARY
5
D
100
AcDbDictionary
0
DICTIONARY
5
1A
330
C
100
AcDbDictionary
0
DICTIONARY
5
17
100
AcDbDictionary
0
ENDSEC
0
EOF
